<?xml version="1.0" standalone="no"?>
<!DOCTYPE svg PUBLIC "-//W3C//DTD SVG 20010904//EN"
 "http://www.w3.org/TR/2001/REC-SVG-20010904/DTD/svg10.dtd">
<svg version="1.0" xmlns="http://www.w3.org/2000/svg"
 width="1024.000000pt" height="1024.000000pt" viewBox="0 0 1024.000000 1024.000000"
 preserveAspectRatio="xMidYMid meet">
<metadata>
Created by potrace 1.14, written by Peter Selinger 2001-2017
</metadata>
<g transform="translate(0.000000,1024.000000) scale(0.100000,-0.100000)"
fill="#000000" stroke="none">
<path d="M4800 10109 c-1182 -74 -2318 -581 -3169 -1414 -848 -829 -1356
-1884 -1488 -3085 -25 -232 -25 -758 0 -990 91 -830 367 -1603 810 -2270 296
-446 687 -866 1107 -1191 742 -574 1611 -921 2570 -1026 232 -25 758 -25 990
0 1204 132 2259 642 3090 1493 792 812 1270 1837 1397 2994 25 232 25 758 0
990 -132 1201 -640 2256 -1488 3085 -1013 991 -2395 1503 -3819 1414z m628
-159 c616 -44 1175 -186 1732 -440 133 -61 171 -80 365 -188 116 -65 374 -233
490 -319 786 -588 1372 -1390 1689 -2312 128 -371 206 -739 248 -1156 16 -167
16 -672 0 -835 -70 -698 -255 -1316 -564 -1885 -1173 -2157 -3741 -3099 -6028
-2210 -496 193 -996 493 -1390 834 -361 313 -687 690 -934 1081 -439 693 -693
1476 -746 2305 -57 895 154 1833 590 2620 606 1096 1571 1892 2760 2279 564
184 1215 266 1788 226z"/>
<path d="M6365 8607 c-65 -26 -96 -50 -212 -171 -142 -146 -252 -290 -330
-431 -31 -55 -110 -196 -176 -314 -66 -118 -142 -266 -169 -330 -27 -64 -80
-179 -118 -256 -37 -77 -101 -207 -140 -290 l-72 -150 -2 -140 -1 -140 -43
-100 c-24 -55 -58 -154 -77 -220 -55 -196 -126 -389 -203 -555 -66 -145 -105
-247 -187 -495 -46 -137 -104 -306 -130 -375 -25 -69 -75 -224 -110 -345 -35
-122 -89 -299 -120 -395 -223 -688 -345 -1262 -398 -1877 -7 -78 -9 -155 -4
-170 14 -53 15 -143 1 -195 -15 -58 -18 -124 -6 -132 4 -2 22 -1 39 2 25 6 41
20 71 67 21 33 83 116 138 185 113 141 162 216 227 347 120 238 218 487 302
768 114 380 197 605 392 1065 55 129 147 348 203 487 l103 252 86 68 c170 134
367 347 488 528 51 76 456 807 495 895 43 94 149 408 318 940 34 107 66 206
71 220 5 14 22 81 38 150 81 345 81 593 0 873 l-32 107 -98 55 c-54 31 -117
62 -140 70 -49 18 -161 18 -204 2z m311 -231 c31 -69 64 -178 64 -218 0 -15
-10 -18 -63 -18 -79 0 -82 -4 -97 -155 -13 -140 -45 -289 -103 -485 -101 -342
-153 -481 -306 -812 -83 -180 -151 -334 -151 -343 0 -35 29 -85 49 -85 29 0
45 30 95 176 24 71 66 179 93 239 63 138 168 402 227 565 51 143 150 458 161
510 13 61 46 127 71 140 13 8 27 11 30 7 23 -22 -10 -323 -45 -417 -5 -14 -37
-113 -71 -220 -94 -299 -248 -763 -290 -875 -120 -317 -329 -730 -493 -970
-40 -59 -175 -229 -216 -272 -23 -24 -127 -103 -135 -103 -3 0 -1 10 4 23 5
12 36 90 69 173 32 83 79 191 104 240 139 277 259 631 261 771 1 54 -2 65 -30
100 -57 70 -83 81 -344 139 -41 9 -107 32 -147 50 -66 31 -73 38 -79 70 -9 46
3 142 26 216 28 89 573 1097 686 1268 80 120 229 288 284 319 62 35 85 39 203
40 l108 1 35 -74z m-1232 -2017 c87 -20 228 -84 286 -128 23 -18 25 -25 24
-118 0 -94 -2 -104 -56 -248 -67 -181 -145 -359 -245 -559 -85 -169 -146 -316
-193 -461 -83 -253 -139 -393 -285 -710 -50 -110 -106 -238 -124 -285 -18 -47
-61 -150 -96 -230 -35 -80 -73 -176 -85 -215 -12 -38 -39 -122 -60 -185 -21
-64 -56 -187 -78 -275 -43 -168 -68 -240 -175 -495 -117 -280 -150 -343 -239
-452 -40 -48 -101 -79 -119 -61 -6 6 -12 41 -15 79 -5 59 4 116 60 394 37 179
82 408 102 510 40 210 67 321 129 535 24 83 67 238 95 345 28 107 118 395 200
640 81 245 160 486 175 535 49 168 88 270 171 451 45 99 94 214 107 255 24 69
104 293 183 506 19 51 34 94 34 97 0 2 9 25 20 50 18 43 22 46 56 46 20 0 78
-10 128 -21z"/>
</g>
</svg>
